<svg width="800" height="800" viewBox="0 0 800 800" fill="none" xmlns="http://www.w3.org/2000/svg">
<path fill-rule="evenodd" clip-rule="evenodd" d="M400 200C289.543 200 200 289.543 200 400C200 454.44 221.796 503.857 257.062 539.887C265.99 549.01 270.803 557.39 272.289 564.813L289.925 652.953C299.278 699.693 340.317 733.333 387.983 733.333H412.017C459.683 733.333 500.723 699.693 510.073 652.953L527.71 564.813C529.197 557.39 534.01 549.01 542.937 539.887C578.203 503.857 600 454.44 600 400C600 289.543 510.457 200 400 200ZM366.667 533.333C348.257 533.333 333.333 548.257 333.333 566.667C333.333 585.077 348.257 600 366.667 600H433.333C451.743 600 466.667 585.077 466.667 566.667C466.667 548.257 451.743 533.333 433.333 533.333H366.667Z" fill="url(#paint0_linear_114_2)"/>
<defs>
<linearGradient id="paint0_linear_114_2" x1="400" y1="200" x2="400" y2="733.333" gradientUnits="userSpaceOnUse">
<stop stop-color="#171B26"/>
<stop offset="0.0001" stop-color="#55638C"/>
</linearGradient>
</defs>
</svg>
